HIERARCHY
ROOT Hips
{
	OFFSET -3.958830 18.904000 13.208200
	CHANNELS 6 Xposition Yposition Zposition Zrotation Yrotation Xrotation 
	JOINT LHipJoint
	{
		OFFSET 0.000000 0.000000 0.000000
		CHANNELS 3 Zrotation Yrotation Xrotation
		JOINT LeftUpLeg
		{
			OFFSET 1.800000 -1.400000 0.085000
			CHANNELS 3 Zrotation Yrotation Xrotation
			JOINT LeftLeg
			{
				OFFSET 2.215000 -6.000000 0.000000
				CHANNELS 3 Zrotation Yrotation Xrotation
				JOINT LeftFoot
				{
					OFFSET 2.500000 -6.900000 0.000000
					CHANNELS 3 Zrotation Yrotation Xrotation
					JOINT LeftToeBase
					{
						OFFSET 0.200000 -0.500000 1.950000
						CHANNELS 3 Zrotation Yrotation Xrotation
						End Site
						{
							OFFSET 0.000000 0.000000 0.000000
						}
					}
				}
			}
		}
	}
	JOINT RHipJoint
	{
		OFFSET 0.000000 0.000000 0.000000
		CHANNELS 3 Zrotation Yrotation Xrotation
		JOINT RightUpLeg
		{
			OFFSET -1.800000 -1.400000 0.085000
			CHANNELS 3 Zrotation Yrotation Xrotation
			JOINT RightLeg
			{
				OFFSET -2.215000 -6.000000 0.000000
				CHANNELS 3 Zrotation Yrotation Xrotation
				JOINT RightFoot
				{
					OFFSET -2.500000 -6.900000 0.000000
					CHANNELS 3 Zrotation Yrotation Xrotation
					JOINT RightToeBase
					{
						OFFSET -0.200000 -0.500000 1.950000
						CHANNELS 3 Zrotation Yrotation Xrotation
						End Site
						{
							OFFSET 0.000000 0.000000 0.000000
						}
					}
				}
			}
		}
	}
	JOINT LowerBack
	{
		OFFSET 0.000000 0.000000 0.000000
		CHANNELS 3 Zrotation Yrotation Xrotation
		JOINT Spine
		{
			OFFSET -0.087000 1.940000 -0.288900
			CHANNELS 3 Zrotation Yrotation Xrotation
			JOINT Spine1
			{
				OFFSET 0.000000 1.950000 0.060000
				CHANNELS 3 Zrotation Yrotation Xrotation
				JOINT Neck
				{
					OFFSET 0.000000 0.000000 0.000000
					CHANNELS 3 Zrotation Yrotation Xrotation
					JOINT Neck1
					{
						OFFSET 0.000000 1.600000 0.340000
						CHANNELS 3 Zrotation Yrotation Xrotation
						JOINT Head
						{
							OFFSET 0.000000 1.667000 -0.240000
							CHANNELS 3 Zrotation Yrotation Xrotation
							End Site
							{
								OFFSET 0.000000 0.000000 0.000000
							}
						}
					}
				}
				JOINT LeftShoulder
				{
					OFFSET 0.000000 0.000000 0.000000
					CHANNELS 3 Zrotation Yrotation Xrotation
					JOINT LeftArm
					{
						OFFSET 2.700000 1.550000 -0.730000
						CHANNELS 3 Zrotation Yrotation Xrotation
						JOINT LeftForeArm
						{
							OFFSET 5.450000 0.000000 0.000000
							CHANNELS 3 Zrotation Yrotation Xrotation
							JOINT LeftHand
							{
								OFFSET 3.450000 0.000000 0.000000
								CHANNELS 3 Zrotation Yrotation Xrotation
								JOINT LeftHandIndex1
								{
									OFFSET 0.750000 0.000000 0.000000
									CHANNELS 3 Zrotation Yrotation Xrotation
									End Site
									{
										OFFSET 0.000000 0.000000 0.000000
									}
								}
							}
						}
					}
				}
				JOINT RightShoulder
				{
					OFFSET 0.000000 0.000000 0.000000
					CHANNELS 3 Zrotation Yrotation Xrotation
					JOINT RightArm
					{
						OFFSET -2.700000 1.550000 -0.730000
						CHANNELS 3 Zrotation Yrotation Xrotation
						JOINT RightForeArm
						{
							OFFSET -5.450000 0.000000 0.000000
							CHANNELS 3 Zrotation Yrotation Xrotation
							JOINT RightHand
							{
								OFFSET -3.450000 0.000000 0.000000
								CHANNELS 3 Zrotation Yrotation Xrotation
								JOINT RightHandIndex1
								{
									OFFSET -0.750000 0.000000 0.000000
									CHANNELS 3 Zrotation Yrotation Xrotation
									End Site
									{
										OFFSET 0.000000 0.000000 0.000000
									}
								}
							}
						}
					}
				}
			}
		}
	}
}
MOTION
Frames: 4
Frame Time: 0.016667
0.673750 17.158420 -2.083820 -3.499755 9.155745 2.867249 -15.185216 13.259090 2.437966 0.685567 -2.030902 -15.728227 0.279741 5.086928 24.100232 -0.764345 4.802418 3.153458 0.215040 -0.038680 -0.086900 18.346508 -10.293381 3.649506 -0.853075 5.625918 -37.374531 3.758441 -4.144848 20.858093 0.253734 -2.801417 3.424306 0.279630 0.858100 0.266970 -3.821292 -1.681310 -7.139843 7.846440 -4.771275 8.991390 -5.514310 -4.208056 6.860820 2.302818 -0.013588 -6.084338 -0.677335 -2.561916 24.955422 -2.745910 -5.476590 -2.000310 -13.174638 -3.626591 -0.266235 -38.310148 -16.296823 7.427010 -79.164932 -39.572890 30.886054 -4.222580 3.578985 0.120110 0.599640 -0.489680 0.291100 8.811209 2.749410 3.294806 38.094037 12.263157 6.111679 123.434933 52.354875 72.125582 1.788158 -2.230889 -0.395860 0.443880 0.232520 -0.042780 
0.594240 17.262700 -2.119900 -3.404527 9.428490 0.218055 -15.206152 13.335371 2.835221 1.295157 -3.716666 -19.634598 0.802331 5.914808 32.753771 -0.589044 5.881944 2.677082 0.185980 -0.123340 -0.000700 18.260431 -10.473583 3.384061 -0.710906 4.920478 -33.929620 2.345412 -4.924081 26.547845 0.072960 -3.372283 3.210797 0.172340 0.706710 0.218470 -3.682776 -1.899851 -7.470842 7.175327 -4.514645 13.783419 -4.830369 -3.378942 6.719402 2.335612 0.123558 -7.334881 -1.109067 -3.702659 28.337172 -1.781110 -5.980290 -5.468550 -13.060155 -6.531323 0.418770 -40.120063 -17.192624 5.035103 -72.385499 -39.765828 26.395646 -4.096819 3.362917 0.327270 0.434630 -0.361690 0.213680 8.538715 5.932466 4.805603 41.173058 10.614899 1.756659 109.154032 53.237814 56.065466 1.978604 -1.989458 -0.415590 0.458840 0.242250 -0.118470 
0.516680 17.363330 -2.163970 -3.423522 7.658536 -1.720484 -15.225579 13.107109 3.339218 2.912702 -5.511237 -24.090977 -0.831919 7.637669 40.041966 -0.295003 7.104660 2.140094 0.272450 -0.008020 0.054230 18.247375 -10.454804 3.200373 0.293737 4.900539 -31.386417 0.498618 -5.268565 32.069545 -0.167054 -4.024790 2.965616 0.161080 0.535280 0.209500 -3.592609 -1.914499 -7.831695 6.965077 -3.668361 17.750230 -4.019457 -1.989884 6.267587 2.100856 -0.208053 -8.011037 -2.287681 -3.945539 31.687525 0.299800 -6.478590 -9.112130 -13.374305 -8.637609 0.878405 -42.779637 -18.231439 3.086192 -63.129637 -38.128273 20.292232 -3.930158 3.293966 0.440130 0.274980 -0.209670 0.215940 9.252803 8.877136 5.489343 43.507683 10.499814 -1.708715 91.813398 52.762148 40.576259 2.078003 -1.898975 -0.330880 0.412930 0.175330 -0.120460 
0.438160 17.432210 -2.206400 -3.571320 3.722693 -2.569414 -15.210081 12.665377 3.811474 5.756208 -6.426716 -28.515148 -4.393753 10.386662 44.282245 -0.008669 8.244274 1.684246 0.346620 0.094730 0.105460 18.317318 -10.337046 3.153973 2.431733 5.605974 -29.600097 -2.361712 -4.726243 36.906691 -0.383860 -4.600414 2.766999 0.161300 0.423610 0.197250 -3.634628 -1.611218 -8.164036 7.715103 -2.336846 19.959356 -4.153010 -0.029463 5.891887 1.990239 -0.838865 -8.629271 -3.794894 -3.451819 34.662561 2.048390 -6.548350 -11.147760 -13.319564 -10.366103 1.412920 -45.821176 -18.823616 1.620950 -53.721414 -35.533766 14.586581 -3.815534 3.228145 0.495840 0.166670 -0.104240 0.228250 9.281707 11.837471 6.049920 46.270636 11.371143 -4.104841 76.467654 49.696803 28.297815 2.098639 -1.841507 -0.261220 0.386120 0.107450 -0.108150 
